<?xml version="1.0" encoding="utf-8"?>
<!-- Generator: Adobe Illustrator 26.3.1, SVG Export Plug-In . SVG Version: 6.00 Build 0)  -->
<svg version="1.1" id="Capa_1" xmlns="http://www.w3.org/2000/svg" xmlns:xlink="http://www.w3.org/1999/xlink" x="0px" y="0px"
	 viewBox="0 0 512 512" style="enable-background:new 0 0 512 512;" xml:space="preserve">
<style type="text/css">
	.st0{fill:#FFFFFF;}
	.st1{fill:#EAEAEA;}
	.st2{fill:#FABE0E;}
	.st3{fill:#F9F6F9;}
</style>
<g>
	<g>
		<path class="st0" d="M413.8,381.5c-26.1,0-52.2-9.9-72.1-29.8L336,346c-6.8-6.8-6.8-17.7,0-24.5l59.8-59.8c12-12,28-18.7,45-18.7
			s33,6.6,45,18.7h0c24.8,24.8,24.8,65.2,0,90.1C466,371.6,439.9,381.5,413.8,381.5L413.8,381.5z M373.1,333.3
			c11.7,8.9,25.8,13.7,40.7,13.7c18,0,34.9-7,47.6-19.7c11.3-11.3,11.3-29.8,0-41.2s-29.8-11.3-41.2,0L373.1,333.3z"/>
		<path class="st1" d="M479.2,286.1c-8-8-19.4-10.3-29.5-7.1c4.3,1.4,8.3,3.7,11.7,7.1c11.4,11.4,11.4,29.8,0,41.2
			c-10.6,10.6-24.1,17.2-38.7,19.1c2.9,0.4,5.9,0.6,8.9,0.6c18,0,34.9-7,47.6-19.7C490.6,315.9,490.6,297.5,479.2,286.1L479.2,286.1
			z"/>
		<path class="st0" d="M410.6,218.1v122.4c0,21.5-7.1,41.4-19,57.4c-17.5,23.4-45.5,38.6-77,38.6H167.7c-31.5,0-59.5-15.2-77-38.6
			c-12-16-19-35.9-19-57.4V218.1H410.6z"/>
		<path class="st1" d="M269.7,436.6H167.7c-53,0-96-43-96-96V218.1h101.9v122.4C173.6,393.6,216.6,436.6,269.7,436.6L269.7,436.6z"
			/>
		<path class="st1" d="M391.5,398c-17.5,23.4-45.5,38.6-77,38.6H167.7c-31.5,0-59.5-15.2-77-38.6H391.5z"/>
		<path class="st0" d="M474.8,423.8H7.5c0,30.9,25.1,56,56,56h355.3C449.7,479.8,474.8,454.8,474.8,423.8L474.8,423.8z"/>
		<path class="st1" d="M194.4,479.8H63.5c-15.5,0-29.4-6.3-39.6-16.4c-10.1-10.1-16.4-24.1-16.4-39.6h130.9
			c0,15.5,6.3,29.5,16.4,39.6C165,473.5,179,479.8,194.4,479.8z"/>
		<g>
			<path class="st2" d="M188.3,331.2h-11.6l8.2-8.2c9.5-9.5,9.5-24.8,0-34.3c-9.5-9.5-24.8-9.5-34.3,0l-8.2,8.2v-11.6
				c0-13.4-10.9-24.2-24.2-24.2S93.9,272,93.9,285.4v11.6l-8.2-8.2c-9.5-9.5-24.8-9.5-34.3,0s-9.5,24.8,0,34.3l8.2,8.2H48
				c-13.4,0-24.2,10.9-24.2,24.2s10.9,24.2,24.2,24.2h11.6l-8.2,8.2c-9.5,9.5-9.5,24.8,0,34.3c9.5,9.5,24.8,9.5,34.3,0l8.2-8.2v11.6
				c0,13.4,10.9,24.2,24.2,24.2s24.2-10.9,24.2-24.2V414l8.2,8.2c9.5,9.5,24.8,9.5,34.3,0s9.5-24.8,0-34.3l-8.2-8.2h11.6
				c13.4,0,24.2-10.9,24.2-24.2C212.5,342.1,201.7,331.2,188.3,331.2z"/>
			<circle class="st3" cx="118.2" cy="355.5" r="46.1"/>
			<path class="st1" d="M126.9,400.8c-2.8,0.5-5.7,0.8-8.7,0.8C92.7,401.6,72,381,72,355.5s20.7-46.1,46.1-46.1c3,0,5.9,0.3,8.7,0.8
				c-21.3,4.1-37.4,22.8-37.4,45.3S105.5,396.8,126.9,400.8z"/>
		</g>
	</g>
	<g>
		<path d="M406.1,388.8c2.6,0.2,5.2,0.3,7.7,0.3c29.3,0,56.7-11.4,77.4-32c13.4-13.4,20.8-31.3,20.8-50.3c0-13.2-3.6-26-10.4-37.2
			c-2.2-3.5-6.8-4.6-10.3-2.5c-3.5,2.2-4.6,6.8-2.5,10.3c5.4,8.8,8.2,18.9,8.2,29.3c0,15-5.8,29.1-16.4,39.7
			c-17.8,17.8-41.5,27.6-66.8,27.6c-0.4,0-0.9,0-1.3,0c2.2-6.3,3.7-12.9,4.7-19.6c18.7-0.8,36.3-8.5,49.6-21.8
			c14.3-14.3,14.3-37.5,0-51.8c-13.3-13.3-34.3-14.2-48.6-2.8v-22.7c7.1-3.1,14.9-4.8,22.8-4.8c10.4,0,20.6,2.9,29.3,8.2
			c1.2,0.8,2.6,1.1,3.9,1.1c2.5,0,5-1.3,6.4-3.6c2.2-3.5,1.1-8.1-2.5-10.3c-11.1-6.9-24-10.5-37.2-10.5c-7.8,0-15.5,1.3-22.8,3.7
			v-21.1c0-4.1-3.4-7.5-7.5-7.5H71.7c-4.1,0-7.5,3.4-7.5,7.5v56.3c-6.8,0.9-13.1,4-18.1,9c-11.1,11.1-12.2,28.4-3.5,40.7
			c-14.9,2.6-26.3,15.6-26.3,31.3s11.4,28.7,26.3,31.3c-6.1,8.7-7.4,19.9-3.7,29.6H7.5c-4.1,0-7.5,3.4-7.5,7.5
			c0,17,6.6,32.9,18.6,44.9c12,12,27.9,18.6,44.9,18.6h21c4.1,0,7.5-3.4,7.5-7.5s-3.4-7.5-7.5-7.5h-21c-12.9,0-25.1-5-34.3-14.2
			c-7.4-7.4-12.1-16.7-13.6-26.8h35.2c5.2,3.6,11.4,5.5,17.8,5.5c6.6,0,13-2,18.3-5.8c2.6,14.9,15.6,26.3,31.3,26.3
			c15.7,0,28.7-11.4,31.3-26.3c5.3,3.8,11.6,5.8,18.3,5.8c6.5,0,12.6-1.9,17.8-5.5h281.1c-3.6,23.2-23.7,41-47.9,41H114.4
			c-4.1,0-7.5,3.4-7.5,7.5s3.4,7.5,7.5,7.5h304.4c35,0,63.5-28.5,63.5-63.5c0-4.1-3.4-7.5-7.5-7.5H385
			C393.6,408.4,400.7,399,406.1,388.8L406.1,388.8z M425.6,291.4c8.4-8.4,22.1-8.4,30.6,0c8.4,8.4,8.4,22.1,0,30.6
			c-10.3,10.3-23.7,16.3-38,17.4v-40.4L425.6,291.4z M167.7,421.8c-4.5,0-8.7-1.7-11.8-4.9l-8.2-8.2c-2.1-2.1-5.4-2.8-8.2-1.6
			c-2.8,1.2-4.6,3.9-4.6,6.9v11.6c0,9.2-7.5,16.8-16.8,16.8s-16.8-7.5-16.8-16.8V414c0-3-1.8-5.8-4.6-6.9c-0.9-0.4-1.9-0.6-2.9-0.6
			c-2,0-3.9,0.8-5.3,2.2l-8.2,8.2c-3.2,3.2-7.4,4.9-11.8,4.9s-8.7-1.7-11.8-4.9c-6.5-6.5-6.5-17.2,0-23.7l8.2-8.2
			c2.1-2.1,2.8-5.4,1.6-8.2s-3.9-4.6-6.9-4.6H48c-9.2,0-16.8-7.5-16.8-16.8s7.5-16.8,16.8-16.8h11.6c3,0,5.8-1.8,6.9-4.6
			s0.5-6-1.6-8.2l-8.2-8.2c-6.5-6.5-6.5-17.2,0-23.7c3.2-3.2,7.4-4.9,11.8-4.9s8.7,1.7,11.8,4.9l8.2,8.2c2.1,2.1,5.4,2.8,8.2,1.6
			c2.8-1.2,4.6-3.9,4.6-6.9v-11.6c0-9.2,7.5-16.8,16.8-16.8s16.8,7.5,16.8,16.8v11.6c0,3,1.8,5.8,4.6,6.9c2.8,1.2,6,0.5,8.2-1.6
			l8.2-8.2c3.2-3.2,7.4-4.9,11.8-4.9s8.7,1.7,11.8,4.9c6.5,6.5,6.5,17.2,0,23.7l-8.2,8.2c-2.1,2.1-2.8,5.4-1.6,8.2s3.9,4.6,6.9,4.6
			h11.6c9.2,0,16.8,7.5,16.8,16.8s-7.5,16.8-16.8,16.8h-11.6c-3,0-5.8,1.8-6.9,4.6s-0.5,6,1.6,8.2l8.2,8.2c3.2,3.2,4.9,7.4,4.9,11.8
			s-1.7,8.7-4.9,11.8C176.4,420.1,172.2,421.8,167.7,421.8L167.7,421.8z M197.4,416.3c1.3-3.6,2.1-7.4,2.1-11.3c0-6.6-2-13-5.8-18.3
			c14.9-2.6,26.3-15.6,26.3-31.3c0-15.7-11.4-28.7-26.3-31.3c8.7-12.4,7.6-29.7-3.5-40.7c-6-6-14-9.3-22.5-9.3c-6.6,0-13,2-18.3,5.8
			c-2.6-14.9-15.6-26.3-31.3-26.3c-15.7,0-28.7,11.4-31.3,26.3c-2.4-1.7-5-3-7.7-4v-50.4h323.9v114.9c0,30.9-16.3,59.8-42.8,75.8
			L197.4,416.3L197.4,416.3z"/>
		<path d="M217.9,81.1c0,4.1,3.4,7.5,7.5,7.5c22.9,0,41.4,18.6,41.4,41.4s-18.6,41.4-41.4,41.4c-4.1,0-7.5,3.4-7.5,7.5
			s3.4,7.5,7.5,7.5c31.1,0,56.4-25.3,56.4-56.4s-25.3-56.4-56.4-56.4C221.3,73.6,217.9,77,217.9,81.1z"/>
		<path d="M225.4,137.6c4.1,0,7.5-3.4,7.5-7.5s-3.4-7.5-7.5-7.5c-22.9,0-41.4-18.6-41.4-41.4s18.6-41.4,41.4-41.4
			c4.1,0,7.5-3.4,7.5-7.5s-3.4-7.5-7.5-7.5C194.3,24.7,169,50,169,81.1S194.3,137.6,225.4,137.6z"/>
		<path d="M118.2,301.9c-29.6,0-53.6,24.1-53.6,53.6s24.1,53.6,53.6,53.6c29.6,0,53.6-24.1,53.6-53.6S147.7,301.9,118.2,301.9z
			 M118.2,394.1c-21.3,0-38.6-17.3-38.6-38.6s17.3-38.6,38.6-38.6c21.3,0,38.6,17.3,38.6,38.6S139.5,394.1,118.2,394.1z"/>
	</g>
</g>
</svg>
